<?xml version="1.0" standalone="yes"?>
<svg xmlns="http://www.w3.org/2000/svg" version="1.2"
style="font-family:Georgia;font-size:27px;font-weight:100;
"><rect width="1039" height="1394" style="fill:#F8F0E8;"/>
<g style="fill:none;stroke:#D8D0C8; stroke-width:14px;
stroke-linejoin:round;stroke-linecap:round;"><path d="M440 385L420 396L398 396L387 376L376 357L387 338L376 319L387 300L398 281L420 281L409 262L420 243L431 224L453 224L464 205L486 205L508 205L519 224L530 205L552 205L574 205L585 224L607 224L618 243L629 262L618 281L640 281L651 300L662 319L651 338L662 357L651 376L640 395L618 395L629 415L618 434L607 453L585 453L574 472L552 472L530 472L519 453L508 472L486 472L464 472L453 453L431 453L420 434L409 415L420 395"/><path d="M387 338L409 338L420 319"/><path d="M409 338L420 357"/><path d="M420 281L439 292L459 303L478 292L497 281"/><path d="M459 303L459 325L459 347"/><path d="M453 224L464 243L486 243"/><path d="M464 243L453 262"/><path d="M519 224L519 246L519 268L519 290L519 312L519 334L519 356L519 378"/><path d="M585 224L574 243L585 262"/><path d="M574 243L552 243"/><path d="M618 281L599 292L580 303L580 325L580 347"/><path d="M580 303L561 292L542 281"/><path d="M651 338L629 338L618 357"/><path d="M629 338L618 319"/><path d="M618 395L599 384"/><path d="M585 453L574 434L552 434"/><path d="M574 434L585 415"/><path d="M519 453L519 431L519 409L500 398L481 387"/><path d="M519 409L539 398L558 387"/><path d="M453 453L464 434L453 415"/><path d="M464 434L486 434"/></g><text x='60' y='80'>Software Developer</text><text x='60' y='125'>Independent Consultant</text><text x='60' y='170'>Process Analyst &amp; Strategist</text><text x='57' y='605' style='font-size:125px;letter-spacing:2px'>Erik Schlyter</text><text x='60' y='637' style='fill:#876;'>M.Sc. Computing Science and Engineering</text><text x='615' y='637' style='fill:#876;'>Linköping Sweden</text><rect stroke="none" x="868" y="173"
width="6" height="6"/><rect stroke="none" x="868" y="178"
width="6" height="6"/><rect stroke="none" x="868" y="183"
width="6" height="6"/><rect stroke="none" x="868" y="188"
width="6" height="6"/><rect stroke="none" x="868" y="193"
width="6" height="6"/><rect stroke="none" x="868" y="198"
width="6" height="6"/><rect stroke="none" x="868" y="203"
width="6" height="6"/><rect stroke="none" x="868" y="213"
width="6" height="6"/><rect stroke="none" x="868" y="228"
width="6" height="6"/><rect stroke="none" x="868" y="243"
width="6" height="6"/><rect stroke="none" x="868" y="248"
width="6" height="6"/><rect stroke="none" x="868" y="253"
width="6" height="6"/><rect stroke="none" x="868" y="258"
width="6" height="6"/><rect stroke="none" x="868" y="263"
width="6" height="6"/><rect stroke="none" x="868" y="268"
width="6" height="6"/><rect stroke="none" x="868" y="273"
width="6" height="6"/><rect stroke="none" x="873" y="173"
width="6" height="6"/><rect stroke="none" x="873" y="203"
width="6" height="6"/><rect stroke="none" x="873" y="218"
width="6" height="6"/><rect stroke="none" x="873" y="223"
width="6" height="6"/><rect stroke="none" x="873" y="243"
width="6" height="6"/><rect stroke="none" x="873" y="273"
width="6" height="6"/><rect stroke="none" x="878" y="173"
width="6" height="6"/><rect stroke="none" x="878" y="183"
width="6" height="6"/><rect stroke="none" x="878" y="188"
width="6" height="6"/><rect stroke="none" x="878" y="193"
width="6" height="6"/><rect stroke="none" x="878" y="203"
width="6" height="6"/><rect stroke="none" x="878" y="228"
width="6" height="6"/><rect stroke="none" x="878" y="243"
width="6" height="6"/><rect stroke="none" x="878" y="253"
width="6" height="6"/><rect stroke="none" x="878" y="258"
width="6" height="6"/><rect stroke="none" x="878" y="263"
width="6" height="6"/><rect stroke="none" x="878" y="273"
width="6" height="6"/><rect stroke="none" x="883" y="173"
width="6" height="6"/><rect stroke="none" x="883" y="183"
width="6" height="6"/><rect stroke="none" x="883" y="188"
width="6" height="6"/><rect stroke="none" x="883" y="193"
width="6" height="6"/><rect stroke="none" x="883" y="203"
width="6" height="6"/><rect stroke="none" x="883" y="228"
width="6" height="6"/><rect stroke="none" x="883" y="233"
width="6" height="6"/><rect stroke="none" x="883" y="243"
width="6" height="6"/><rect stroke="none" x="883" y="253"
width="6" height="6"/><rect stroke="none" x="883" y="258"
width="6" height="6"/><rect stroke="none" x="883" y="263"
width="6" height="6"/><rect stroke="none" x="883" y="273"
width="6" height="6"/><rect stroke="none" x="888" y="173"
width="6" height="6"/><rect stroke="none" x="888" y="183"
width="6" height="6"/><rect stroke="none" x="888" y="188"
width="6" height="6"/><rect stroke="none" x="888" y="193"
width="6" height="6"/><rect stroke="none" x="888" y="203"
width="6" height="6"/><rect stroke="none" x="888" y="218"
width="6" height="6"/><rect stroke="none" x="888" y="228"
width="6" height="6"/><rect stroke="none" x="888" y="243"
width="6" height="6"/><rect stroke="none" x="888" y="253"
width="6" height="6"/><rect stroke="none" x="888" y="258"
width="6" height="6"/><rect stroke="none" x="888" y="263"
width="6" height="6"/><rect stroke="none" x="888" y="273"
width="6" height="6"/><rect stroke="none" x="893" y="173"
width="6" height="6"/><rect stroke="none" x="893" y="203"
width="6" height="6"/><rect stroke="none" x="893" y="218"
width="6" height="6"/><rect stroke="none" x="893" y="223"
width="6" height="6"/><rect stroke="none" x="893" y="233"
width="6" height="6"/><rect stroke="none" x="893" y="243"
width="6" height="6"/><rect stroke="none" x="893" y="273"
width="6" height="6"/><rect stroke="none" x="898" y="173"
width="6" height="6"/><rect stroke="none" x="898" y="178"
width="6" height="6"/><rect stroke="none" x="898" y="183"
width="6" height="6"/><rect stroke="none" x="898" y="188"
width="6" height="6"/><rect stroke="none" x="898" y="193"
width="6" height="6"/><rect stroke="none" x="898" y="198"
width="6" height="6"/><rect stroke="none" x="898" y="203"
width="6" height="6"/><rect stroke="none" x="898" y="213"
width="6" height="6"/><rect stroke="none" x="898" y="223"
width="6" height="6"/><rect stroke="none" x="898" y="233"
width="6" height="6"/><rect stroke="none" x="898" y="243"
width="6" height="6"/><rect stroke="none" x="898" y="248"
width="6" height="6"/><rect stroke="none" x="898" y="253"
width="6" height="6"/><rect stroke="none" x="898" y="258"
width="6" height="6"/><rect stroke="none" x="898" y="263"
width="6" height="6"/><rect stroke="none" x="898" y="268"
width="6" height="6"/><rect stroke="none" x="898" y="273"
width="6" height="6"/><rect stroke="none" x="903" y="228"
width="6" height="6"/><rect stroke="none" x="908" y="178"
width="6" height="6"/><rect stroke="none" x="908" y="183"
width="6" height="6"/><rect stroke="none" x="908" y="188"
width="6" height="6"/><rect stroke="none" x="908" y="203"
width="6" height="6"/><rect stroke="none" x="908" y="208"
width="6" height="6"/><rect stroke="none" x="908" y="213"
width="6" height="6"/><rect stroke="none" x="908" y="218"
width="6" height="6"/><rect stroke="none" x="908" y="238"
width="6" height="6"/><rect stroke="none" x="908" y="273"
width="6" height="6"/><rect stroke="none" x="913" y="173"
width="6" height="6"/><rect stroke="none" x="913" y="178"
width="6" height="6"/><rect stroke="none" x="913" y="183"
width="6" height="6"/><rect stroke="none" x="913" y="193"
width="6" height="6"/><rect stroke="none" x="913" y="198"
width="6" height="6"/><rect stroke="none" x="913" y="218"
width="6" height="6"/><rect stroke="none" x="913" y="233"
width="6" height="6"/><rect stroke="none" x="913" y="238"
width="6" height="6"/><rect stroke="none" x="913" y="263"
width="6" height="6"/><rect stroke="none" x="913" y="268"
width="6" height="6"/><rect stroke="none" x="918" y="173"
width="6" height="6"/><rect stroke="none" x="918" y="178"
width="6" height="6"/><rect stroke="none" x="918" y="183"
width="6" height="6"/><rect stroke="none" x="918" y="188"
width="6" height="6"/><rect stroke="none" x="918" y="203"
width="6" height="6"/><rect stroke="none" x="918" y="208"
width="6" height="6"/><rect stroke="none" x="918" y="213"
width="6" height="6"/><rect stroke="none" x="918" y="223"
width="6" height="6"/><rect stroke="none" x="918" y="228"
width="6" height="6"/><rect stroke="none" x="918" y="233"
width="6" height="6"/><rect stroke="none" x="918" y="238"
width="6" height="6"/><rect stroke="none" x="918" y="258"
width="6" height="6"/><rect stroke="none" x="918" y="268"
width="6" height="6"/><rect stroke="none" x="923" y="178"
width="6" height="6"/><rect stroke="none" x="923" y="183"
width="6" height="6"/><rect stroke="none" x="923" y="188"
width="6" height="6"/><rect stroke="none" x="923" y="193"
width="6" height="6"/><rect stroke="none" x="923" y="208"
width="6" height="6"/><rect stroke="none" x="923" y="223"
width="6" height="6"/><rect stroke="none" x="923" y="248"
width="6" height="6"/><rect stroke="none" x="923" y="253"
width="6" height="6"/><rect stroke="none" x="923" y="268"
width="6" height="6"/><rect stroke="none" x="928" y="173"
width="6" height="6"/><rect stroke="none" x="928" y="183"
width="6" height="6"/><rect stroke="none" x="928" y="193"
width="6" height="6"/><rect stroke="none" x="928" y="198"
width="6" height="6"/><rect stroke="none" x="928" y="203"
width="6" height="6"/><rect stroke="none" x="928" y="208"
width="6" height="6"/><rect stroke="none" x="928" y="213"
width="6" height="6"/><rect stroke="none" x="928" y="218"
width="6" height="6"/><rect stroke="none" x="928" y="238"
width="6" height="6"/><rect stroke="none" x="928" y="243"
width="6" height="6"/><rect stroke="none" x="928" y="248"
width="6" height="6"/><rect stroke="none" x="928" y="253"
width="6" height="6"/><rect stroke="none" x="928" y="263"
width="6" height="6"/><rect stroke="none" x="928" y="273"
width="6" height="6"/><rect stroke="none" x="933" y="213"
width="6" height="6"/><rect stroke="none" x="933" y="223"
width="6" height="6"/><rect stroke="none" x="933" y="228"
width="6" height="6"/><rect stroke="none" x="933" y="233"
width="6" height="6"/><rect stroke="none" x="933" y="243"
width="6" height="6"/><rect stroke="none" x="933" y="258"
width="6" height="6"/><rect stroke="none" x="933" y="263"
width="6" height="6"/><rect stroke="none" x="933" y="268"
width="6" height="6"/><rect stroke="none" x="933" y="273"
width="6" height="6"/><rect stroke="none" x="938" y="173"
width="6" height="6"/><rect stroke="none" x="938" y="178"
width="6" height="6"/><rect stroke="none" x="938" y="183"
width="6" height="6"/><rect stroke="none" x="938" y="188"
width="6" height="6"/><rect stroke="none" x="938" y="193"
width="6" height="6"/><rect stroke="none" x="938" y="198"
width="6" height="6"/><rect stroke="none" x="938" y="203"
width="6" height="6"/><rect stroke="none" x="938" y="213"
width="6" height="6"/><rect stroke="none" x="938" y="218"
width="6" height="6"/><rect stroke="none" x="938" y="223"
width="6" height="6"/><rect stroke="none" x="938" y="243"
width="6" height="6"/><rect stroke="none" x="938" y="248"
width="6" height="6"/><rect stroke="none" x="938" y="253"
width="6" height="6"/><rect stroke="none" x="938" y="258"
width="6" height="6"/><rect stroke="none" x="938" y="273"
width="6" height="6"/><rect stroke="none" x="943" y="173"
width="6" height="6"/><rect stroke="none" x="943" y="203"
width="6" height="6"/><rect stroke="none" x="943" y="218"
width="6" height="6"/><rect stroke="none" x="943" y="228"
width="6" height="6"/><rect stroke="none" x="943" y="233"
width="6" height="6"/><rect stroke="none" x="943" y="253"
width="6" height="6"/><rect stroke="none" x="943" y="258"
width="6" height="6"/><rect stroke="none" x="943" y="268"
width="6" height="6"/><rect stroke="none" x="948" y="173"
width="6" height="6"/><rect stroke="none" x="948" y="183"
width="6" height="6"/><rect stroke="none" x="948" y="188"
width="6" height="6"/><rect stroke="none" x="948" y="193"
width="6" height="6"/><rect stroke="none" x="948" y="203"
width="6" height="6"/><rect stroke="none" x="948" y="238"
width="6" height="6"/><rect stroke="none" x="948" y="258"
width="6" height="6"/><rect stroke="none" x="948" y="263"
width="6" height="6"/><rect stroke="none" x="953" y="173"
width="6" height="6"/><rect stroke="none" x="953" y="183"
width="6" height="6"/><rect stroke="none" x="953" y="188"
width="6" height="6"/><rect stroke="none" x="953" y="193"
width="6" height="6"/><rect stroke="none" x="953" y="203"
width="6" height="6"/><rect stroke="none" x="953" y="213"
width="6" height="6"/><rect stroke="none" x="953" y="218"
width="6" height="6"/><rect stroke="none" x="953" y="223"
width="6" height="6"/><rect stroke="none" x="953" y="228"
width="6" height="6"/><rect stroke="none" x="953" y="238"
width="6" height="6"/><rect stroke="none" x="953" y="243"
width="6" height="6"/><rect stroke="none" x="953" y="258"
width="6" height="6"/><rect stroke="none" x="953" y="263"
width="6" height="6"/><rect stroke="none" x="953" y="268"
width="6" height="6"/><rect stroke="none" x="958" y="173"
width="6" height="6"/><rect stroke="none" x="958" y="183"
width="6" height="6"/><rect stroke="none" x="958" y="188"
width="6" height="6"/><rect stroke="none" x="958" y="193"
width="6" height="6"/><rect stroke="none" x="958" y="203"
width="6" height="6"/><rect stroke="none" x="958" y="213"
width="6" height="6"/><rect stroke="none" x="958" y="218"
width="6" height="6"/><rect stroke="none" x="958" y="228"
width="6" height="6"/><rect stroke="none" x="958" y="238"
width="6" height="6"/><rect stroke="none" x="958" y="248"
width="6" height="6"/><rect stroke="none" x="958" y="268"
width="6" height="6"/><rect stroke="none" x="963" y="173"
width="6" height="6"/><rect stroke="none" x="963" y="203"
width="6" height="6"/><rect stroke="none" x="963" y="213"
width="6" height="6"/><rect stroke="none" x="963" y="218"
width="6" height="6"/><rect stroke="none" x="963" y="223"
width="6" height="6"/><rect stroke="none" x="963" y="228"
width="6" height="6"/><rect stroke="none" x="963" y="238"
width="6" height="6"/><rect stroke="none" x="963" y="243"
width="6" height="6"/><rect stroke="none" x="963" y="253"
width="6" height="6"/><rect stroke="none" x="963" y="263"
width="6" height="6"/><rect stroke="none" x="963" y="273"
width="6" height="6"/><rect stroke="none" x="968" y="173"
width="6" height="6"/><rect stroke="none" x="968" y="178"
width="6" height="6"/><rect stroke="none" x="968" y="183"
width="6" height="6"/><rect stroke="none" x="968" y="188"
width="6" height="6"/><rect stroke="none" x="968" y="193"
width="6" height="6"/><rect stroke="none" x="968" y="198"
width="6" height="6"/><rect stroke="none" x="968" y="203"
width="6" height="6"/><rect stroke="none" x="968" y="228"
width="6" height="6"/><rect stroke="none" x="968" y="233"
width="6" height="6"/><rect stroke="none" x="968" y="238"
width="6" height="6"/><rect stroke="none" x="968" y="248"
width="6" height="6"/><rect stroke="none" x="968" y="253"
width="6" height="6"/><rect stroke="none" x="968" y="263"
width="6" height="6"/>
<g style="font-family:Liberation Mono;font-size:24px;
font-weight:700;"><text x='725' y='80'>+46(0)70 65 63 892</text><text x='795' y='115'>erik@erisc.se</text><text x='809' y='150'>www.erisc.se</text></g><g style="font-family:monospace;
font-size:17px" transform="translate(0 1394)
rotate(-90 0 0)"><text x='51' y='80'>#!/usr/bin/env ruby</text><text x='51' y='100'># http://github.com/ErikSchlyter/my_business_card.git</text><text x='51' y='120'># A script that generates the SVG that is my personal</text><text x='51' y='140'># business card, complete with info, logo, QR and its</text><text x='51' y='160'># own source code on the back. Self replication ftw!</text><text x='51' y='180'>require 'rubygems'; require 'rqrcode'; require 'cgi'</text><text x='51' y='200'>t=&quot;&lt;?xml version='1.0' standalone='yes'?&gt;</text><text x='51' y='220'>&lt;svg xmlns='http://www.w3.org/2000/svg' version='1.2'</text><text x='51' y='240'>style='font-family:Georgia;font-size:27px;font-weight:100;</text><text x='51' y='260'>'&gt;&lt;rect width='1039' height='1394' style='fill:#F8F0E8;'/&gt;</text><text x='51' y='280'>&lt;g style='fill:none;stroke:#D8D0C8; stroke-width:14px;</text><text x='51' y='300'>stroke-linejoin:round;stroke-linecap:round;'&gt;q&lt;/g&gt;QS</text><text x='51' y='320'>&lt;g style='font-family:Liberation Mono;font-size:24px;</text><text x='51' y='340'>font-weight:700;'&gt;W&lt;/g&gt;&lt;g style='font-family:monospace;</text><text x='51' y='360'>font-size:17px' transform='translate(0 1394)</text><text x='51' y='380'>rotate(-90 0 0)'&gt;|&lt;/g&gt;&lt;/svg&gt;&quot;</text><text x='51' y='400'>$i=0;$s='----X+FA[F+EEEX]FAF[+X]A';</text><text x='51' y='420'>$a={'A'=&gt;'-B[FD]++B-','B'=&gt;'-C[FX[GX]--X]GC-','C'=&gt;'-C'&lt;&lt;</text><text x='51' y='440'>   '++C-','D'=&gt;'E[GE]--E','E'=&gt;'XX','F'=&gt;'GG','G'=&gt;'++'};</text><text x='51' y='460'>$a2={'\''=&gt;'&quot;','S'=&gt;''};$m={'+'=&gt;&quot;a+=d&quot;,'-'=&gt;&quot;a-=d&quot;,'['=&gt;</text><text x='51' y='480'>  &quot;$i+=1;su&lt;&lt;=c(x,y,a,d)&quot;, ']'=&gt;&quot;return svg&lt;&lt;'\&quot;/&gt;'&lt;&lt;su&quot;,</text><text x='51' y='500'>  'g'=&gt;&quot;x+=Math.cos(a)*22;y+=Math.sin(a)*22;svg&lt;&lt;\&quot;&quot;&lt;&lt;</text><text x='51' y='520'>  &quot;L\#{x.to_int} \#{y.to_int}\&quot;&quot;};</text><text x='51' y='540'>q=RQRCode::QRCode.new('www.erisc.se',:size=&gt;1,:level=&gt;:m)</text><text x='51' y='560'>q.modules.each_index{|x|q.modules.each_index{|y|$a2['S']&lt;&lt;</text><text x='51' y='580'>&quot;&lt;rect stroke=\&quot;none\&quot; x=\&quot;#{x*5+868}\&quot; y=\&quot;#{y*5+173}\&quot;</text><text x='51' y='600'>width=\&quot;6\&quot; height=\&quot;6\&quot;/&gt;&quot; if q.dark?(y,x)}}</text><text x='51' y='620'>def c(x,y,a,d) svg=&quot;&lt;path d=\&quot;M#{x.to_int} #{y.to_int}&quot;;</text><text x='51' y='640'>  su=''; while $i&lt;$s.size; eval $m[$s[$i]]||$m['g'];$i+=1;</text><text x='51' y='660'>end; eval $m[']']; end</text><text x='51' y='680'>def e(s,m) r=''; s.each_char{|c|r&lt;&lt;(m[c]||c)}; r; end</text><text x='51' y='700'>def t2(a)&quot;&lt;text x='#{a.pop}' y='#{a.pop}'&quot;&lt;&lt;</text><text x='51' y='720'>  &quot;#{a.pop}&gt;#{a.pop}&lt;/text&gt;&quot; end</text><text x='51' y='740'>def te(x,y,z,d) r=''; z.each{|q|r&lt;&lt;t2([q,'',y,x]);y+=d};</text><text x='51' y='760'>  r end; 4.times{$s=e($s,$a);}</text><text x='51' y='780'>$a2['q']=c(440.0, 385.0, -Math::PI/2, Math::PI/6);</text><text x='51' y='800'>$a2['Q']=te(60,80,['Software Developer','Independent '&lt;&lt;</text><text x='51' y='820'>'Consultant','Process Analyst &amp;amp; Strategist'],45)&lt;&lt;</text><text x='51' y='840'>t2(['Erik Schlyter',&quot; style='font-size:125px;&quot;&lt;&lt;</text><text x='51' y='860'>&quot;letter-spacing:2px'&quot;,605,57])&lt;&lt;t2(['M.Sc. Computing '&lt;&lt;</text><text x='51' y='880'>'Science and Engineering',&quot; style='fill:#876;'&quot;,637,</text><text x='51' y='900'>60])&lt;&lt;t2([&quot;Link\u00F6ping Sweden&quot;,&quot; style='fill:#876;'&quot;,</text><text x='51' y='920'>637,615]);$a2['W']=t2(['+46(0)70 65 63 892','',80,725])&lt;&lt;</text><text x='51' y='940'>t2(['erik@erisc.se','',115,795])&lt;&lt;t2(['www.erisc.se','',</text><text x='51' y='960'>  150,809]);$a2['|']=te(51,80,CGI::escapeHTML(</text><text x='51' y='980'>  open($0).read).split(&quot;\n&quot;),20); puts e(t,$a2)</text></g></svg>
